<?xml version="1.0" encoding="UTF-8"?>
<svg width="100px" height="70px" version="1.1" viewBox="0 0 700 200" xmlns="http://www.w3.org/2000/svg" xmlns:xlink="http://www.w3.org/1999/xlink">
 <g>
  <path fill="#ce1126" d="m560.95 268.13h-98.113c-5.1523-24.977-27.273-43.68-53.762-43.68-22.289 0-41.441 13.328-50.008 32.367h-0.054687-215.54c-9.2383 0-16.801 7.5586-16.801 16.801v11.199c0 9.2383 7.5586 16.801 16.801 16.801h215.43c8.5703 19.207 27.773 32.648 50.176 32.648 26.488 0 48.551-18.762 53.762-43.68h98.113c6.1602 0 11.199-5.0391 11.199-11.199 0-6.1602-5.0391-11.254-11.199-11.254zm-128.86 34.215c-5.9375 5.8789-14 9.5195-22.961 9.5195-9.0156 0-17.078-3.6406-22.961-9.5195-5.8789-5.9375-9.5195-14-9.5195-22.961 0-9.0156 3.6406-17.078 9.5195-22.961 5.9375-5.8789 14-9.5195 22.961-9.5195 9.0156 0 17.078 3.6406 22.961 9.5195 5.8789 5.9336 9.5195 14 9.5195 22.961 0 8.9609-3.6406 17.023-9.5195 22.961z"/>
 </g>
</svg>
